# xmcd CD database file
#
# Track frame offsets:
#	170
#	13762
#	33640
#	50155
#	72727
#	93690
#	112317
#	130255
#	143972
#	160115
#
# Disc length: 2400 seconds
#
# Revision: 0
# Processed by: cddbd v1.4PL0 Copyright (c) Steve Scherf et al.
# Submitted via: CDex 1.50beta9
#
DISCID=9e095e0a
DTITLE=Legendary Blues Band - Money Talks
DYEAR=1993
DGENRE=Blues
TTITLE0=Money Talks
TTITLE1=Easy Come
TTITLE2=Going Too Fast
TTITLE3=I Wonder
TTITLE4=Blue Shadows
TTITLE5=Sitting And Drinking
TTITLE6=Lottery Blues
TTITLE7=Sock Juice
TTITLE8=Rock Me
TTITLE9=Woman's World
EXTD=YEAR: 1993
EXTT0=
EXTT1=
EXTT2=
EXTT3=
EXTT4=
EXTT5=
EXTT6=
EXTT7=
EXTT8=
EXTT9=
PLAYORDER=
